<svg xmlns="http://www.w3.org/2000/svg" version="1.1" xmlns:xlink="http://www.w3.org/1999/xlink" xmlns:svgjs="http://svgjs.dev/svgjs" width="100%" height="100%" viewBox="0 0 1000 600"><rect width="1000" height="600" x="0" y="0" fill="#ff"/><g><circle r="166.66666666666666" cx="336.0794321695963" cy="358.3016516385178" fill="#f6b042" transform="matrix(0.7378427969718182,0,0,0.7378427969718182,0,35.6296883692666)"/><path d="M321.93502083604756 433.3016613820856L321.93502083604756 433.3016613820856Q320.73892639096715 432.4473082070282 319.8845732159097 430.7386018569133L319.8845732159097 430.7386018569133Q319.37196131087524 429.88424868185587 319.71370258089826 429.54250741183296L319.71370258089826 429.54250741183296L321.76415020103605 428.49287351104806Q323.8390079118898 427.46764970097917 326.4997077999258 424.9045901758069Q329.16040768796177 422.31712055991864 331.8943378481456 418.0209445939156L331.8943378481456 418.0209445939156Q334.65267809904526 413.7491787186285 336.53225508417165 405.3276974216338Q338.41183206929793 396.9306262153551 338.41183206929793 385.9460853931881L338.41183206929793 385.9460853931881L338.41183206929793 341.3000294737585Q338.41183206929793 334.7825352526061 336.0196431791371 332.0486050924224L336.0196431791371 332.0486050924224Q334.3109368290223 329.9737473815686 331.99197821100927 329.2902648415227Q329.6730195929963 328.60678230147676 327.8666728800177 328.43591166646524Q326.06032616703914 328.26504103145373 326.06032616703914 328.0941703964423L326.06032616703914 328.0941703964423Q326.06032616703914 323.9688650654507 327.08554997710803 323.7979944304392L327.08554997710803 323.7979944304392Q336.19051381414863 322.43102935034733 342.02452549525503 321.3081651774147Q347.85853717636155 320.20971109519803 349.0546316214419 319.867969825175L349.0546316214419 319.867969825175L351.12948933229563 319.1600771944132L351.64210123733017 319.1600771944132Q352.3255837773761 319.1600771944132 352.49645441238755 320.6246826373688Q352.667325047399 322.08928808032437 352.49645441238755 322.7727706203703L352.49645441238755 322.7727706203703Q352.1547131423646 326.21459341131595 351.8862021444894 329.2902648415227Q351.64210123733017 332.39034636244537 351.64210123733017 335.1242765226291L351.64210123733017 335.1242765226291L351.64210123733017 381.99165069720806Q351.64210123733017 403.61899107151896 344.95373638116627 414.26179062366293L344.95373638116627 414.26179062366293Q340.6575604151632 420.9501554798268 334.0424258311471 426.10068462088725Q327.42729124713105 431.2512137619478 321.93502083604756 433.3016613820856ZM343.7332318453699 300.46194770601346L343.7332318453699 300.46194770601346Q340.31581914514027 300.46194770601346 337.728349529252 297.89888818084114Q335.16529000407974 295.311418564953 335.16529000407974 291.8695957740073L335.16529000407974 291.8695957740073Q335.16529000407974 288.2813124387661 337.728349529252 285.79148318574164Q340.31581914514027 283.3016539327171 343.7332318453699 283.3016539327171L343.7332318453699 283.3016539327171Q347.3459252713271 283.3016539327171 349.8357545243516 285.79148318574164Q352.3255837773761 288.2813124387661 352.3255837773761 291.8695957740073L352.3255837773761 291.8695957740073Q352.3255837773761 295.311418564953 349.8357545243516 297.89888818084114Q347.3459252713271 300.46194770601346 343.7332318453699 300.46194770601346Z " fill="#533549" transform="matrix(0.7378427969718182,0,0,0.7378427969718182,0,35.6296883692666)"/><path d="M656.6323019441104 433.0800927680125L656.6323019441104 433.0800927680125Q641.9456601855343 433.0800927680125 629.1581531371188 427.2877319020224Q616.3706460887033 421.52702328120154 606.6850590668838 411.49326156251914Q596.9994720450642 401.4911520890061 591.5552858759368 388.2288613630505Q586.0794474616401 374.99822288226426 586.0794474616401 360.09001540750273L586.0794474616401 360.09001540750273Q586.0794474616401 344.2955450679995 591.6502426114448 330.3685571934877Q597.2210377612496 316.47322156414515 607.2231472347627 305.90137167758394Q617.2569089534451 295.32952179102267 630.4875474342314 289.31559520884707Q643.7181859150176 283.3016686266715 659.1011770673192 283.3016686266715L659.1011770673192 283.3016686266715Q674.8956474068225 283.3016686266715 711.8338175194483 293.3354303453539L711.8338175194483 293.3354303453539L712.7200803841899 320.90453588785346Q712.7200803841899 324.2596738758041 708.0672003442962 324.2596738758041L708.0672003442962 324.2596738758041Q705.8198909372727 324.2596738758041 705.1551937887164 323.151845294877L705.1551937887164 323.151845294877Q699.1412672065408 292.63908095162833 659.7658742158756 292.63908095162833L659.7658742158756 292.63908095162833Q645.0792324572994 292.63908095162833 633.2729450091338 301.3434483731982Q621.466657560968 310.0161635495988 614.5664681140507 324.7028053081749Q607.6662786671335 339.389447066751 607.6662786671335 357.2096610970923L607.6662786671335 357.2096610970923Q607.6662786671335 369.42742773245953 612.0342885005032 381.32867191613326Q616.3706460887033 393.2615683449764 624.030489419685 402.6939374054412Q631.7219849958358 412.15795871107537 642.293834882397 417.8553628415575Q652.8656847689583 423.5211147268703 665.0834514043255 423.5211147268703L665.0834514043255 423.5211147268703Q684.8977568803355 423.5211147268703 694.0452557342762 418.6150167256218L694.0452557342762 418.6150167256218Q695.5962157475742 417.95031957706556 695.5962157475742 415.2915309828405L695.5962157475742 415.2915309828405L695.3746500313887 397.02818552012843L695.3746500313887 395.47722550683056Q695.3746500313887 381.23371518062527 693.570472056736 376.3276171793768L693.570472056736 376.3276171793768Q693.1273406243652 374.77665716607885 689.8038548815841 373.7637853206598Q686.4487168936334 372.7825657204101 682.6820997184814 372.1178685718538Q678.88383029816 371.4531714232976 676.4466074201205 371.4531714232976L676.4466074201205 371.4531714232976Q675.5603445553787 371.4531714232976 675.5603445553787 368.54116486771784L675.5603445553787 368.54116486771784Q675.5603445553787 365.88237627349287 676.4466074201205 364.9961134087512L676.4466074201205 364.9961134087512L705.5983252210872 366.1039419896783L729.6540315497896 364.9961134087512Q730.0971629821604 366.76863913823456 730.0971629821604 368.098033435347L730.0971629821604 368.098033435347Q730.0971629821604 371.4531714232976 729.1792478722493 371.4531714232976L729.1792478722493 371.4531714232976Q728.2929850075077 371.4531714232976 725.7291531487908 372.1178685718538Q723.1969735352432 372.7825657204101 720.4115759603408 373.66882858515174Q717.6261783854384 374.55509144989344 716.2967840883259 375.4413543146351L716.2967840883259 375.4413543146351Q714.0494746813024 376.992314327933 714.0494746813024 390.3495617893966L714.0494746813024 390.3495617893966Q714.0494746813024 392.5652189512508 714.1760836619799 395.12905080996774Q714.2710403974877 397.69288266868466 714.4926061136732 400.38332350807906L714.4926061136732 400.38332350807906L714.7141718298585 406.3655978450853Q714.7141718298585 410.8285644139629 716.2967840883259 414.1837024019135L716.2967840883259 414.1837024019135Q717.8477441016239 417.50718814469474 717.8477441016239 418.6150167256218L717.8477441016239 418.6150167256218Q717.8477441016239 420.3875424551051 712.2769489518191 422.63485186212864L712.2769489518191 422.63485186212864Q708.7318974928523 424.407377591612 706.2630223696435 425.0720747401682Q703.8257994916039 425.73677188872443 702.9395366268623 426.17990332109525L702.9395366268623 426.17990332109525Q701.8317080459351 426.6230347534661 698.0334386256138 427.8574723150706Q694.2668214504617 429.091909876675 691.7979463272527 429.5350413090458L691.7979463272527 429.5350413090458Q685.7840197450771 430.6428698899729 680.6880082728126 431.40252377403726Q675.5603445553787 432.19382990327085 669.989549405574 432.6369613356417Q664.4187542557693 433.0800927680125 656.6323019441104 433.0800927680125ZM767.7000302433423 433.3016584841979L767.7000302433423 433.3016584841979Q757.4447028084746 433.3016584841979 750.7977313229121 427.8574723150706Q744.1191075921802 422.4132861459432 744.1191075921802 411.49326156251914L744.1191075921802 411.49326156251914Q744.1191075921802 398.13601410105554 761.4645379449814 389.24173320846955L761.4645379449814 389.24173320846955Q769.0294245404548 385.44346378814816 776.4993544004203 383.22780662629395Q783.9376320152164 381.01214946443986 791.5025186106898 378.1001429088601L791.5025186106898 378.1001429088601Q793.528262301528 377.4354457603038 793.528262301528 374.77665716607885L793.528262301528 374.77665716607885L793.528262301528 358.095923961834Q793.528262301528 350.97416879873134 789.0652957326502 347.0809426429019Q784.6023291637725 343.1877164870724 778.3668368654116 343.1877164870724L778.3668368654116 343.1877164870724Q771.6882131346797 343.1877164870724 767.2568988109715 347.74563979145813Q762.7939322420939 352.30356309584386 762.7939322420939 359.6468839751319L762.7939322420939 359.6468839751319Q762.7939322420939 367.4333362867908 753.6780856333226 367.4333362867908L753.6780856333226 367.4333362867908Q747.2210276187761 367.4333362867908 745.0053704569218 363.1919354340985L745.0053704569218 363.1919354340985Q745.0053704569218 358.5390553942048 748.8985966127514 353.53800065744826Q752.7918227685807 348.5052936755224 759.0273150669418 344.2955450679995Q765.2628073653027 340.05414421530725 772.7010849800988 337.3953556210823Q780.1710148400643 334.70491478168793 787.5143357193524 334.70491478168793L787.5143357193524 334.70491478168793Q799.7321023547197 334.70491478168793 805.081331788339 340.6238846283555Q810.4305612219582 346.51120222985367 810.4305612219582 359.6468839751319L810.4305612219582 359.6468839751319L810.4305612219582 411.0501301301483Q810.4305612219582 415.7346624152114 812.8677840999978 418.8365824418072Q815.3366592232067 421.97015471357236 819.5464078307295 421.97015471357236L819.5464078307295 421.97015471357236Q822.4584143863094 421.97015471357236 827.3328601423884 418.8365824418072L827.3328601423884 418.8365824418072Q828.2191230071301 418.8365824418072 828.2191230071301 420.60910817129053L828.2191230071301 420.60910817129053Q828.2191230071301 423.5211147268703 827.1112944262031 425.2936404563536L827.1112944262031 425.2936404563536Q817.9954478174318 433.0800927680125 811.5383898028851 433.0800927680125L811.5383898028851 433.0800927680125Q806.4107260854514 433.0800927680125 801.7578460455577 428.8703441604896Q797.0733137604946 424.6289433077974 795.3007880310113 419.94441102273436L795.3007880310113 419.94441102273436Q794.1929594500841 420.830673887476 792.5153904561089 422.2866771652658Q790.8378214621337 423.74268044305575 789.7299928812065 424.6289433077974L789.7299928812065 424.6289433077974Q785.0454605961434 428.17399476676405 779.601274427016 430.737826625481Q774.1570882578887 433.3016584841979 767.7000302433423 433.3016584841979ZM776.1511797035575 420.60910817129053L776.1511797035575 420.60910817129053Q782.3866720019184 420.60910817129053 787.9574671517232 417.0640567123239Q793.528262301528 413.48735300818794 793.528262301528 409.4991701168504L793.528262301528 409.4991701168504L793.528262301528 386.5829446142446Q787.7359014355377 388.79860177609874 782.4816287374265 390.571127505582Q777.2590082844845 392.3436532350654 774.1570882578887 393.48313406116176L774.1570882578887 393.48313406116176Q770.137253121382 395.0340940744597 766.4655926817379 399.0222769657972Q762.7939322420939 403.04211210230403 762.7939322420939 408.16977581973794L762.7939322420939 408.16977581973794Q762.7939322420939 414.8483995504697 766.9087241141087 417.72875386088015Q771.0235159861236 420.60910817129053 776.1511797035575 420.60910817129053ZM860.7259787960477 431.3075670385292L836.4803589963292 432.41539561945626Q835.5624438864181 431.5291327547146 835.5624438864181 428.6487784443042L835.5624438864181 428.6487784443042Q835.5624438864181 425.95833760490984 836.4803589963292 425.95833760490984L836.4803589963292 425.95833760490984Q838.2528847258125 425.95833760490984 841.3548047524084 425.2936404563536Q844.4883770241736 424.6289433077974 847.1471656183985 423.5211147268703Q849.8059542126234 422.4132861459432 850.0275199288089 421.52702328120154L850.0275199288089 421.52702328120154Q850.94543503872 418.3934510094364 851.2619574904134 414.4052681180989Q851.6101321872761 410.3854329815921 851.6101321872761 405.92246641271447L851.6101321872761 405.92246641271447L851.6101321872761 363.8566325826548Q851.6101321872761 355.40548312243965 848.476559915511 351.860431663473L848.476559915511 351.860431663473Q846.2609027536569 349.16999082407864 843.2539394625692 348.283727959337Q840.2469761714813 347.3974650945953 837.9047100289497 347.3025083590873Q835.5624438864181 347.1758993784099 835.5624438864181 346.7327679460391L835.5624438864181 346.7327679460391Q835.5624438864181 341.38353851241976 836.9234904287 341.16197279623435L836.9234904287 341.16197279623435Q848.6981256316965 339.389447066751 855.5033583431057 338.06005276963856Q862.2769388093454 336.73065847252604 865.8536425134814 335.84439560778435L865.8536425134814 335.84439560778435L868.7339968238919 335.1480462140588Q869.6202596886335 334.92648049787334 869.841825404819 336.8256152080341Q870.0633911210043 338.7247499181948 869.841825404819 339.83257849912184L869.841825404819 339.83257849912184Q869.3986939724482 342.966150770887 869.1771282562627 345.18180793274115Q868.9555625400774 347.3974650945953 868.9555625400774 348.7268593917078L868.9555625400774 348.7268593917078Q868.9555625400774 349.6131222564495 869.3986939724482 349.6131222564495L869.3986939724482 349.6131222564495Q869.6202596886335 349.6131222564495 870.0633911210043 349.16999082407864L870.0633911210043 349.16999082407864Q875.1910548384383 343.8524136356287 883.9903789955163 339.04127236988825Q892.7580509074248 334.2617833493171 900.7977211804384 334.2617833493171L900.7977211804384 334.2617833493171Q909.6920020730245 334.2617833493171 915.5793196745226 339.04127236988825Q921.466637276021 343.8524136356287 923.7139466830442 350.08790593398965L923.7139466830442 350.08790593398965Q940.6162456034747 334.2617833493171 958.2148939176304 334.2617833493171L958.2148939176304 334.2617833493171Q986.2587831376702 334.2617833493171 986.2587831376702 376.992314327933L986.2587831376702 376.992314327933L986.2587831376702 401.7127178051915Q986.2587831376702 408.16977581973794 986.701914570041 413.0442215758171Q987.1450460024118 417.95031957706556 988.0313088671535 421.52702328120154L988.0313088671535 421.52702328120154Q988.4744402995243 422.4132861459432 991.1332288937494 423.5211147268703Q993.8236697331438 424.6289433077974 996.9255897597395 425.2936404563536Q1000.0591620315047 425.95833760490984 1001.3885563286171 425.95833760490984L1001.3885563286171 425.95833760490984Q1002.0532534771735 425.95833760490984 1002.274819193359 428.6487784443042Q1002.4963849095443 431.3075670385292 1002.0532534771735 432.41539561945626L1002.0532534771735 432.41539561945626L978.2191128646566 431.3075670385292L953.9734930649381 432.41539561945626Q953.0872302001967 431.5291327547146 953.0872302001967 428.6487784443042L953.0872302001967 428.6487784443042Q953.0872302001967 425.95833760490984 953.9734930649381 425.95833760490984L953.9734930649381 425.95833760490984Q955.7460187944216 425.95833760490984 958.8795910661868 425.2936404563536Q961.9815110927825 424.6289433077974 964.6719519321769 423.5211147268703Q967.330740526402 422.4132861459432 967.5523062425873 421.52702328120154L967.5523062425873 421.52702328120154Q968.4385691073289 418.3934510094364 968.7867438041917 414.72179056979235Q969.1032662558853 411.0501301301483 969.1032662558853 407.28351295499624L969.1032662558853 407.28351295499624L969.1032662558853 382.1199780453669Q969.1032662558853 347.8405965269661 946.6301721856503 347.8405965269661L946.6301721856503 347.8405965269661Q941.2809427520308 347.8405965269661 936.6280627121371 350.1828626694977Q931.9435304270742 352.52512881202927 929.1581328521718 355.40548312243965Q926.3727352772694 358.3174896780194 926.3727352772694 360.53314683987355L926.3727352772694 360.53314683987355Q927.0374324258255 364.77454769256576 927.258998142011 369.1109052807661Q927.4805638581963 373.44726286896633 927.4805638581963 378.57492658640024L927.4805638581963 378.57492658640024L927.4805638581963 403.70680925086026Q927.4805638581963 409.277604400665 927.9236952905671 413.6139619888653Q928.3668267229382 417.95031957706556 929.284741832849 421.52702328120154L929.284741832849 421.52702328120154Q929.7278732652198 422.4132861459432 932.386661859445 423.5211147268703Q935.0454504536699 424.6289433077974 938.1790227254351 425.2936404563536Q941.2809427520308 425.95833760490984 942.6103370491435 425.95833760490984L942.6103370491435 425.95833760490984Q943.306686442869 425.95833760490984 943.5282521590543 428.6487784443042Q943.7498178752398 431.3075670385292 943.306686442869 432.41539561945626L943.306686442869 432.41539561945626L919.4725458303521 431.3075670385292L895.2269260306336 432.41539561945626Q894.340663165892 431.5291327547146 894.340663165892 428.6487784443042L894.340663165892 428.6487784443042Q894.340663165892 425.95833760490984 895.2269260306336 425.95833760490984L895.2269260306336 425.95833760490984Q896.9994517601172 425.95833760490984 900.1013717867129 425.2936404563536Q903.234944058478 424.6289433077974 905.893732652703 423.5211147268703Q908.5841734920973 422.4132861459432 908.8057392082828 421.52702328120154L908.8057392082828 421.52702328120154Q909.6920020730245 418.3934510094364 910.008524524718 414.4052681180989Q910.3566992215808 410.3854329815921 910.3566992215808 405.92246641271447L910.3566992215808 405.92246641271447L910.3566992215808 383.22780662629395Q910.3566992215808 347.8405965269661 888.9914337322728 347.8405965269661L888.9914337322728 347.8405965269661Q884.5284671633951 347.8405965269661 879.8755871235014 350.1828626694977Q875.1910548384383 352.52512881202927 871.9625258311651 355.9752235354879Q868.7339968238919 359.4253182589465 868.7339968238919 362.5272382855423L868.7339968238919 362.5272382855423L868.7339968238919 401.7127178051915Q868.7339968238919 408.16977581973794 869.1771282562627 413.0442215758171Q869.6202596886335 417.95031957706556 870.5065225533751 421.52702328120154L870.5065225533751 421.52702328120154Q870.949653985746 422.4132861459432 873.6400948251403 423.5211147268703Q876.2988834193654 424.6289433077974 879.4324556911306 425.2936404563536Q882.5343757177263 425.95833760490984 883.8637700148388 425.95833760490984L883.8637700148388 425.95833760490984Q884.5284671633951 425.95833760490984 884.7500328795804 428.6487784443042Q884.971598595766 431.3075670385292 884.5284671633951 432.41539561945626L884.5284671633951 432.41539561945626L860.7259787960477 431.3075670385292ZM1060.799820511478 433.0800927680125L1060.799820511478 433.0800927680125Q1048.5504016309415 433.0800927680125 1038.326726441243 426.6230347534661Q1028.071399006375 420.16597673891977 1021.9625156886916 409.37256113617303Q1015.853632371008 398.57914553342636 1015.853632371008 385.22189807196276L1015.853632371008 385.22189807196276Q1015.853632371008 369.64899344864494 1021.645993236998 358.3174896780194Q1027.406701857819 346.9543336622245 1037.4404635765013 340.8454503445409Q1047.4425730500143 334.70491478168793 1059.9135576467363 334.70491478168793L1059.9135576467363 334.70491478168793Q1070.1372328364348 334.70491478168793 1077.9236851480937 338.59814093751737Q1085.7417897049218 342.49136709334687 1089.9515383124449 348.5052936755224L1089.9515383124449 348.5052936755224Q1093.9713734489517 354.7407859738834 1095.8388559139428 361.10288725292173Q1097.7379906241038 367.4333362867908 1097.7379906241038 373.66882858515174L1097.7379906241038 373.66882858515174Q1097.7379906241038 378.1001429088601 1096.408596326991 379.1130147542791Q1095.0792020298786 380.12588659969816 1091.2809326095573 380.12588659969816L1091.2809326095573 380.12588659969816L1035.1931541694778 380.12588659969816Q1033.4206284399943 380.12588659969816 1033.4206284399943 381.23371518062527L1033.4206284399943 381.23371518062527Q1033.4206284399943 390.571127505582 1037.2188978603158 399.1488859464746Q1040.9855150354679 407.72664438736706 1048.328835914756 413.26578729200247Q1055.672156794044 418.8365824418072 1066.3706156612827 418.8365824418072L1066.3706156612827 418.8365824418072Q1075.7080279862396 418.8365824418072 1082.070129265278 416.05118486690486Q1088.400578299147 413.26578729200247 1091.2809326095573 411.0501301301483L1091.2809326095573 411.0501301301483L1092.8635448680245 409.94230154922127Q1094.192939165137 409.94230154922127 1094.192939165137 412.8226558596316L1094.192939165137 412.8226558596316Q1094.192939165137 414.4052681180989 1092.8635448680245 416.8424909961385L1092.8635448680245 416.8424909961385Q1088.400578299147 423.07798329449946 1079.7278631227464 428.079038031256Q1071.0234957011764 433.0800927680125 1060.799820511478 433.0800927680125ZM1035.1931541694778 370.75682202957205L1035.1931541694778 370.75682202957205L1078.6200345418192 370.75682202957205Q1079.7278631227464 370.75682202957205 1079.7278631227464 368.54116486771784L1079.7278631227464 368.54116486771784Q1079.7278631227464 363.6350668664694 1077.1640312640295 357.74774926497116Q1074.6001994053124 351.860431663473 1069.4725356878785 347.3974650945953Q1064.376524215614 342.966150770887 1056.5584196587856 342.966150770887L1056.5584196587856 342.966150770887Q1049.436664495683 342.966150770887 1044.3406530234186 347.74563979145813Q1039.2129893059846 352.52512881202927 1036.5542007117597 358.63401212971286Q1033.8637598723653 364.77454769256576 1033.8637598723653 369.20586201627407L1033.8637598723653 369.20586201627407Q1033.8637598723653 370.75682202957205 1035.1931541694778 370.75682202957205ZM1135.815641562826 431.3075670385292L1111.538369517938 432.41539561945626Q1110.6521066531964 431.5291327547146 1110.6521066531964 428.6487784443042L1110.6521066531964 428.6487784443042Q1110.6521066531964 425.95833760490984 1111.538369517938 425.95833760490984L1111.538369517938 425.95833760490984Q1113.3108952474215 425.95833760490984 1116.4444675191867 425.2936404563536Q1119.5463875457824 424.6289433077974 1122.2368283851768 423.5211147268703Q1124.8956169794017 422.4132861459432 1125.1171826955872 421.52702328120154L1125.1171826955872 421.52702328120154Q1126.0034455603288 418.3934510094364 1126.3516202571916 414.4052681180989Q1126.6681427088852 410.3854329815921 1126.6681427088852 405.92246641271447L1126.6681427088852 405.92246641271447L1126.6681427088852 363.8566325826548Q1126.6681427088852 355.40548312243965 1123.5662226822892 351.860431663473L1123.5662226822892 351.860431663473Q1121.350565520435 349.16999082407864 1118.3436022293472 348.283727959337Q1115.3366389382595 347.3974650945953 1112.994372795728 347.3025083590873Q1110.6521066531964 347.1758993784099 1110.6521066531964 346.7327679460391L1110.6521066531964 346.7327679460391Q1110.6521066531964 341.38353851241976 1111.981500950309 341.16197279623435L1111.981500950309 341.16197279623435Q1136.2587729951965 337.3953556210823 1140.0253901703488 336.2875270401552L1140.0253901703488 336.2875270401552L1143.82365959067 335.1480462140588Q1144.7099224554117 334.92648049787334 1144.9314881715973 336.95222418871145Q1145.1530538877826 338.9463156343802 1144.9314881715973 339.83257849912184L1144.9314881715973 339.83257849912184L1143.6020938744846 350.97416879873134Q1147.5902767658222 344.96024221655574 1154.617075193417 339.7376217636138Q1161.612221375842 334.4833490655025 1168.5124108227592 334.4833490655025L1168.5124108227592 334.4833490655025Q1181.426526851852 334.4833490655025 1185.8894934207299 340.94040708004894L1185.8894934207299 340.94040708004894Q1185.8894934207299 348.7268593917078 1183.4206182975208 352.30356309584386Q1180.9833954194812 355.84861455481047 1177.4066917153452 355.84861455481047L1177.4066917153452 355.84861455481047Q1173.4185088240079 355.84861455481047 1170.0633708360572 352.0819973796584L1170.0633708360572 352.0819973796584Q1166.739885093276 348.283727959337 1160.9475242272858 348.283727959337L1160.9475242272858 348.283727959337Q1156.4845576584082 348.283727959337 1152.4963747670706 351.29069125042474Q1148.4765396305638 354.29765454151254 1146.1659257332017 358.85557784589827Q1143.82365959067 363.41350115028393 1143.82365959067 368.31959915153243L1143.82365959067 368.31959915153243L1143.82365959067 401.7127178051915Q1143.82365959067 408.16977581973794 1144.266791023041 413.0442215758171Q1144.7099224554117 417.95031957706556 1145.5961853201536 421.52702328120154L1145.5961853201536 421.52702328120154Q1146.0393167525242 422.4132861459432 1148.6981053467493 423.5211147268703Q1151.3885461861437 424.6289433077974 1154.617075193417 425.2936404563536Q1157.8456042006899 425.95833760490984 1159.1749984978026 425.95833760490984L1159.1749984978026 425.95833760490984Q1159.8396956463587 425.95833760490984 1160.0612613625442 428.6487784443042Q1160.2828270787295 431.3075670385292 1159.8396956463587 432.41539561945626L1159.8396956463587 432.41539561945626L1135.815641562826 431.3075670385292Z " fill="#f6b042" transform="matrix(0.7378427969718182,0,0,0.7378427969718182,0,35.6296883692666)"/></g></svg>